<svg xmlns="http://www.w3.org/2000/svg" width="650" height="650" viewBox="0 0 650 650">
  <g fill="none" fill-rule="evenodd" stroke-linecap="round" stroke-linejoin="round" stroke-width="25" transform="translate(37 37)">
    <path stroke="#000" d="M275.55,575.5 L25.55,575.5 L25.5499989,575.5 C11.7428739,575.499999 0.549998907,564.307125 0.549998907,550.5 C0.549998907,550.5 0.549998907,550.5 0.549998907,550.5 L0.549998907,25.5 L0.549998907,25.5000038 C0.549996822,11.6928788 11.7428739,0.500003775 25.5499989,0.500003775 L357.874999,0.500003775 L357.875,0.500003783 C364.5301,0.547709283 370.891475,3.24702878 375.55,8.00000378 L468.225,100.500004 L468.225,100.500003 C472.913725,105.187328 475.548575,111.545128 475.55,118.175003 L475.55,175.500003"/>
    <path stroke="#C1C1C1" d="M457.2025,388.4725 C471.232075,402.502075 471.232075,425.2485 457.2025,439.278 C443.172925,453.307575 420.4265,453.307575 406.397,439.278 C392.367425,425.248425 392.367425,402.502 406.397,388.4725 C420.426575,374.442925 443.173,374.442925 457.2025,388.4725"/>
    <path stroke="#C1C1C1" d="M462.325,274.85 L472.925,309.65 L472.925,309.649999 C476.530275,321.643124 488.82065,328.783349 501.025,325.974999 L536.3,317.799999 L536.299997,317.799999 C553.580997,313.904874 570.747747,324.756249 574.642747,342.037249 C576.972767,352.374524 574.046874,363.195474 566.824997,370.949999 L542.149997,397.549999 L542.149998,397.549997 C533.630798,406.766172 533.630798,420.983822 542.149995,430.199997 L566.824995,456.799997 L566.824995,456.799997 C578.897945,469.763347 578.17612,490.059247 565.212752,502.132247 C557.458227,509.354122 546.637277,512.280022 536.300002,509.949997 L501.025002,501.774997 L501.025003,501.774997 C488.820653,498.966647 476.530278,506.106872 472.925003,518.099997 L462.325003,552.999997 L462.325004,552.999994 C457.256004,569.858494 439.480254,579.415744 422.621754,574.346769 C412.374054,571.265494 404.356254,563.247719 401.274979,552.999994 L390.674979,517.999994 L390.674979,517.999994 C387.058854,506.003319 374.760629,498.864894 362.549979,501.674994 L327.274979,509.849994 C309.993979,513.745119 292.827229,502.893744 288.932229,485.612744 C286.602209,475.275469 289.528104,464.454519 296.749979,456.699994 L321.424979,430.099994 L321.424979,430.099994 C329.944179,420.883819 329.944179,406.666169 321.424979,397.449994 L296.749979,370.849994 L296.749977,370.849993 C284.677027,357.886643 285.398852,337.590743 298.362222,325.517743 C306.116747,318.295868 316.937697,315.369968 327.274972,317.699993 L362.549972,325.874993 L362.549971,325.874993 C374.760621,328.685093 387.058846,321.546668 390.674971,309.549993 L401.274971,274.749993 L401.274971,274.749993 C406.371496,257.899793 424.162846,248.371493 441.012971,253.468118 C451.255721,256.566143 459.260446,264.597143 462.324921,274.849993 L462.325,274.85 Z"/>
    <path stroke="#00A186" d="M127.999999.0737543587L118.496004.0737543587 118.496005.0737544566C107.046747-.907661135 97.0057757 8.0199561 96.0689762 20.0140988 96.0257093 20.5680436 96.0026896 21.1235204 95.9999676 21.6793107L95.9999676 42.4803591 95.9999682 42.4803429C95.7094979 50.164914 91.4048184 57.0581065 84.7999897 60.4151711L64 75.5005407 84.7999897 90.5859102 84.7999901 90.5859104C91.4072508 93.9400921 95.7130087 100.834994 95.9999846 108.520739L95.9999846 129.305026 95.9999838 129.304849C96.0499966 141.339002 105.402923 151.052086 116.890373 150.99979 117.426221 150.997346 117.961778 150.97321 118.495845 150.927437L128 150.927437M63.9999992.0737543587L54.4960039.0737543587 54.4960051.0737544566C43.0467467-.907661135 33.0057757 8.0199561 32.0689762 20.0140988 32.0257093 20.5680436 32.0026896 21.1235204 31.9999676 21.6793107L31.9999676 42.4803591 31.9999682 42.4803429C31.7094979 50.164914 27.4048184 57.0581065 20.7999897 60.4151711L0 75.5005407 20.7999897 90.5859102 20.7999901 90.5859104C27.4072508 93.9400921 31.7130087 100.834994 31.9999846 108.520739L31.9999846 129.305026 31.9999838 129.304849C32.0499966 141.339002 41.4029232 151.052086 52.8903735 150.99979 53.4262212 150.997346 53.9617778 150.97321 54.4958447 150.927437L64 150.927437" transform="translate(90 99)"/>
  </g>
</svg>
